<?xml version="1.0" encoding="utf-8"?>
<!-- Generator: Adobe Illustrator 26.0.0, SVG Export Plug-In . SVG Version: 6.00 Build 0)  -->
<svg version="1.1" id="Capa_1" xmlns="http://www.w3.org/2000/svg" xmlns:xlink="http://www.w3.org/1999/xlink" x="0px" y="0px"
	 viewBox="0 0 372.6 611.9" style="enable-background:new 0 0 372.6 611.9;" xml:space="preserve">
<style type="text/css">
	.st0{opacity:0.25;enable-background:new    ;}
	.st1{filter:url(#d);}
	.st2{fill:#00892C;}
	.st3{opacity:0.1786;fill:#2E3436;enable-background:new    ;}
	.st4{opacity:0.3893;fill:#2E3436;enable-background:new    ;}
	.st5{opacity:0.25;fill:url(#SVGID_1_);enable-background:new    ;}
	.st6{opacity:0.25;fill:url(#SVGID_00000044173425053700892110000008050496277813913269_);enable-background:new    ;}
	.st7{fill:#37A42C;}
	.st8{filter:url(#e);}
</style>
<filter  height="1.0896" id="e" width="1.2756" x="-.13781" y="-.04479">
	<feGaussianBlur  stdDeviation=".79176"></feGaussianBlur>
</filter>
<filter  id="d">
	<feGaussianBlur  stdDeviation="1.88219"></feGaussianBlur>
</filter>
<path d="M61.1,176h254.3c20.6,0,31.1-18.1,37.1-46l20-83.9c0-25.5-16.6-46-37.1-46H41.1C20.6,0,4,20.5,4,46L24,130
	C32,157.3,40.6,176,61.1,176L61.1,176z"/>
<path class="st0" d="M76.5,165.4h223.6c18.1,0,27.4-15.9,32.7-40.5l17.6-73.8c0-22.4-14.6-40.5-32.7-40.5H58.9
	c-18.1,0-32.7,18.1-32.7,40.5l17.6,73.8C50.8,149,58.4,165.4,76.5,165.4L76.5,165.4z"/>
<path d="M358.9,289.2l-41.4,291.4c0,14.9-12,26.9-26.9,26.9H77.8c-14.9,0-26.9-12-26.9-26.9l-42.7-290L358.9,289.2L358.9,289.2z"/>
<path d="M21,290.5l-12.8,0L51,580.6c0,11.8,7.6,21.8,18.2,25.4c-2.4-4.4-3.8-9.4-3.8-14.8L21,290.5L21,290.5z"/>
<g class="st1">
	<path d="M29,291.8l-12.8,0L59,581.9c0,8,3.1,17.9,8.5,22.8c2.7,2.4,6.2,1.4,9.6,2.6c-2.4-4.4-3.8-9.4-3.8-14.8L29,291.8L29,291.8
		L29,291.8z"/>
</g>
<g class="st1">
	<path d="M340.4,294l12.8,0l-42.8,290.1c0,8.7-4.1,16.4-10.4,21.3c-2.3,1.8-4.2,1.1-7,2c2.4-4.4,3.1-7.3,3.1-12.7L340.4,294
		L340.4,294L340.4,294z"/>
</g>
<path d="M348.1,290.5l12.8,0l-42.8,290.1c0,11.8-7.6,21.8-18.2,25.4c2.4-4.4,3.8-9.4,3.8-14.8L348.1,290.5L348.1,290.5z"/>
<path class="st2" d="M1.1,282.9l10.4,70.4c6.8,7.2,16.4,11.7,27.1,11.7h294.3c10,0,19-3.9,25.6-10.2l9-63.5
	c-5.4,13.9-18.8,23.8-34.7,23.8H38.6c-18.9,0-34.3-13.9-36.8-32.1H1.1L1.1,282.9z"/>
<path d="M57.1,176h254.3c20.6,0,31.1,14.6,37.1,37.1l20,67.7c0,20.6-16.6,37.1-37.1,37.1H37.1C16.6,318,0,301.4,0,280.9l20-67.7
	C28,191.1,36.6,176,57.1,176L57.1,176z"/>
<path class="st3" d="M12.4,314l8.4,57c5.6,3.4,12.2,5.3,19.2,5.3h294.3c5.3,0,10.3-1.1,14.9-3.1l7.7-54.6
	c-6.3,4.8-14.1,7.7-22.6,7.7H40C29,326.3,19.2,321.6,12.4,314L12.4,314z"/>
<path d="M57.7,178c-20.6,0-29.2,15.1-37.2,37.2l-20,67.7c0,20.6,16.6,37.1,37.2,37.1h294.3c20.6,0,37.1-16.5,37.1-37.1l-20-67.7
	c-6-22.6-16.5-37.2-37.1-37.2L57.7,178L57.7,178z M64,180.5h243.5c19.7,0,29.8,13.8,35.6,35.1l19.2,63.9c0,19.4-15.9,35-35.6,35
	H44.9c-19.7,0-35.6-15.6-35.6-35l19.2-63.9C36.1,194.7,44.3,180.5,64,180.5L64,180.5z"/>
<path d="M313.2,139.6L79,38.5c-3.1-1.3-6.6,0.1-7.9,3.2s0.1,6.6,3.2,7.9l234.2,101.1c3.1,1.3,6.6-0.1,7.9-3.2
	S316.2,140.9,313.2,139.6z"/>
<path class="st4" d="M75.7,37.5c-2.3,0-4.6,1.4-5.5,3.7c-0.1,0.2-0.2,0.4-0.2,0.6c1.7-1.3,4-1.7,6.1-0.8l234.2,101
	c2.8,1.2,4.3,4.3,3.4,7.2c0.7-0.6,1.4-1.4,1.8-2.3c1.3-3.1-0.1-6.6-3.2-7.9L78,38C77.2,37.7,76.4,37.5,75.7,37.5L75.7,37.5z"/>
<g transform="matrix(1 0 0 -1 -6.8583e-8 606.2)">
	<path d="M313.2,557.2L79,456.1c-3.1-1.3-6.6,0.1-7.9,3.2s0.1,6.6,3.2,7.9l234.2,101.1c3.1,1.3,6.6-0.1,7.9-3.2
		S316.2,558.4,313.2,557.2L313.2,557.2z"/>
	<path class="st4" d="M72.5,464.7c-1.6-1.7-2-4.3-1-6.6c0.1-0.2,0.2-0.4,0.3-0.6c0.1,2.1,1.4,4.1,3.5,5L308,567.2
		c2.8,1.3,6.1,0.2,7.6-2.4c0.1,1-0.1,1.9-0.5,2.9c-1.4,3-4.9,4.4-7.9,3L74.5,466.1C73.7,465.7,73.1,465.3,72.5,464.7L72.5,464.7z"/>
</g>
<linearGradient id="SVGID_1_" gradientUnits="userSpaceOnUse" x1="9.4262" y1="250.2241" x2="59.6309" y2="250.2241">
	<stop  offset="0" style="stop-color:#2E3436"/>
	<stop  offset="1" style="stop-color:#2E3436;stop-opacity:0"/>
</linearGradient>
<path class="st5" d="M34.9,312.8c-9.2-3-16.7-8.8-20.7-16c-2.4-4.3-4.7-11.8-4.7-15.2c0-3.5,18.8-65.7,22.3-74
	c1.5-3.5,3.8-8.1,5.1-10.3c2.7-4.7,9-11.8,9.8-11c0.5,0.5,13,121.4,13,125.9l0,1.9l-10.4,0C41.2,314.1,37.9,313.8,34.9,312.8
	L34.9,312.8z"/>
<linearGradient id="SVGID_00000181770536956002781440000001871107381259893157_" gradientUnits="userSpaceOnUse" x1="340.467" y1="331.16" x2="340.467" y2="408.73" gradientTransform="matrix(1 0 0 -1 0 614)">
	<stop  offset="0" style="stop-color:#2E3436"/>
	<stop  offset="1" style="stop-color:#2E3436;stop-opacity:0"/>
</linearGradient>
<path style="opacity:0.25;fill:url(#SVGID_00000181770536956002781440000001871107381259893157_);enable-background:new    ;" d="
	M340.1,312.1c9.2-3,16.7-8.8,20.7-16c2.4-4.3,4.7-11.8,4.7-15.2c0-3.5-18.8-65.7-22.3-74c-1.5-3.5-3.8-8.1-5.1-10.3
	c-2.7-4.7-9-11.8-9.8-11c-0.5,0.5-13,121.4-13,125.9l0,1.9l10.4,0C333.8,313.4,337.1,313.1,340.1,312.1L340.1,312.1z"/>
<path d="M1.1,282.9l10.4,70.4c6.8,7.2,16.4,11.7,27.1,11.7h294.3c10,0,19-3.9,25.6-10.2l9-63.5c-5.4,13.9-18.8,23.8-34.7,23.8H38.6
	c-18.9,0-34.3-13.9-36.8-32.1H1.1L1.1,282.9z"/>
<g transform="matrix(1.0399 0 0 1.0399 135 154.32)">
	<path class="st7" d="M34.5,251.3l-18,31.2l22,12.7l14-24.2l4.9,8.6l-5.8,3.4l22.4-0.2l7.4-12.6l3.9-6.7l-5.9,3.4l-8.9-15.5
		L34.5,251.3L34.5,251.3z M88.5,282.5l-22.2,12.8L79.8,319l-9.2,0.1v-6.5l-3.6,6.5l-7.4,13v0.1l7.2,12.7l3.8,6.8v-6.8h17.9l18-31.2
		L88.5,282.5z M1.5,294.7l5.9,3.4l-9,15.5l18,31.2h36v-25.6l-28,0.2l4.9-8.6l5.9,3.4L23.9,295L1.5,294.7z"/>
</g>
<g class="st8">
	<path d="M5.5,293.4c0,0,8.1,15.6,23,19.4l3.2,49.5c-14.1,1.1-19.4-8.8-19.4-8.8L5.5,293.4L5.5,293.4z"/>
</g>
<g class="st8">
	<path d="M366.6,293.4c0,0-8.1,15.6-23,19.4l-3.2,49.5c14.1,1.1,19.4-8.8,19.4-8.8L366.6,293.4L366.6,293.4z"/>
</g>
</svg>
