<?xml version="1.0" encoding="utf-8"?>
<!-- Generator: Adobe Illustrator 26.0.0, SVG Export Plug-In . SVG Version: 6.00 Build 0)  -->
<svg version="1.1" id="Capa_1" xmlns="http://www.w3.org/2000/svg" xmlns:xlink="http://www.w3.org/1999/xlink" x="0px" y="0px"
	 viewBox="0 0 892.5 800" style="enable-background:new 0 0 892.5 800;" xml:space="preserve">
<style type="text/css">
	.st0{fill:#8CC63F;}
</style>
<g>
	<g>
		<path class="st0" d="M516.9,153.8C648.1,34.9,843.4,23.9,843.4,23.9s-573-19.7-439.6,412C405.7,288.5,449.5,214.7,516.9,153.8
			L516.9,153.8z"/>
		<path class="st0" d="M840.9,24.9c0,0-194.7,19.4-320.6,143.8C456,232.3,415.4,307.6,419.6,453.6c-8.9,114.1-100.8,310-100.8,310
			c20.2,52.9,68.8,15.7,68.8,15.7c-17.3-54.7,66-301.9,73.9-325.3C587.7,445.1,947.8,388.4,840.9,24.9L840.9,24.9z"/>
		<path class="st0" d="M250.1,315.8C162,236,30.8,228.6,30.8,228.6s384.7-13.2,295,276.6C324.6,406.2,295.2,356.6,250.1,315.8
			L250.1,315.8z"/>
		<path class="st0" d="M32.5,229.3c0,0,130.7,13.1,215.3,96.6c43.2,42.6,70.4,93.2,67.6,191.2c6,76.5,67.6,208.1,67.6,208.1
			c-13.5,35.5-46.3,10.5-46.3,10.5c11.5-36.7-44.3-202.7-49.6-218.4C202.4,511.4-39.2,473.2,32.5,229.3L32.5,229.3z"/>
	</g>
</g>
</svg>
